<?xml version="1.0" standalone="no"?>
<!DOCTYPE svg PUBLIC "-//W3C//DTD SVG 20010904//EN"
 "http://www.w3.org/TR/2001/REC-SVG-20010904/DTD/svg10.dtd">
<svg version="1.0" xmlns="http://www.w3.org/2000/svg"
 width="1200.000000pt" height="1200.000000pt" viewBox="0 0 1200.000000 1200.000000"
 preserveAspectRatio="xMidYMid meet">

<g transform="translate(0.000000,1200.000000) scale(0.100000,-0.100000)"
fill="#000000" stroke="none">
<path d="M3583 11085 c-220 -40 -427 -150 -593 -315 -47 -47 -106 -117 -132
-155 -67 -101 -2265 -3917 -2300 -3995 -126 -278 -128 -626 -5 -909 33 -78
2193 -3833 2292 -3987 171 -265 463 -451 782 -499 145 -22 4578 -22 4723 -1
171 26 343 93 484 189 80 54 205 175 265 256 59 80 2256 3888 2317 4016 24 50
55 135 70 190 25 92 28 115 28 285 0 170 -3 193 -28 285 -15 54 -44 136 -66
181 -21 46 -544 958 -1161 2029 -802 1388 -1142 1970 -1188 2027 -149 187
-354 318 -609 391 l-77 22 -2365 2 c-1910 1 -2379 -1 -2437 -12z m3995 -2241
c202 -41 367 -131 517 -279 113 -111 176 -205 232 -340 69 -171 73 -208 73
-773 l0 -504 -29 -29 -29 -29 -999 0 -998 0 981 -982 c645 -646 991 -999 1009
-1031 69 -120 83 -279 46 -499 -94 -545 -472 -983 -1000 -1158 -238 -79 -143
-75 -1811 -75 l-1485 0 -100 28 c-379 104 -638 371 -732 757 -13 54 -17 153
-20 569 -3 278 -2 519 2 537 3 17 17 44 32 58 l26 26 1011 0 1011 0 -991 993
c-960 960 -993 994 -1028 1067 -51 105 -69 201 -61 320 25 372 167 692 420
945 206 206 475 347 765 400 61 11 355 13 1578 14 1334 1 1511 -1 1580 -15z"/>
</g>
</svg>
